<?xml version="1.0" encoding="utf-8"?>
<!-- Generator: Adobe Illustrator 16.0.0, SVG Export Plug-In . SVG Version: 6.00 Build 0)  -->
<!DOCTYPE svg PUBLIC "-//W3C//DTD SVG 1.1//EN" "http://www.w3.org/Graphics/SVG/1.1/DTD/svg11.dtd">
<svg version="1.1" id="Capa_1" xmlns="http://www.w3.org/2000/svg" xmlns:xlink="http://www.w3.org/1999/xlink" x="0px" y="0px"
	 width="264px" height="49px" viewBox="0 0 264 49" enable-background="new 0 0 264 49" xml:space="preserve">
<g>
	<path fill="#BECDE5" d="M64.184,10.285c-5.91-0.004-12.075,1.328-18.301,3.055c-0.79,0.16-1.563,0.676-1.969,1.316
		c-0.375,0.602-0.512,1.207-0.629,1.844c-0.605,3.387-0.531,6.715-0.406,10.398c0.027,0.844,0.156,1.848,0.547,2.453
		c0.414,0.613,1.117,1.004,1.96,1.133c1.083,0.164,2.16,0.289,3.239,0.402l-0.238,6.656c-0.04,0.527,0.222,0.969,0.543,1.223
		c0.289,0.219,0.61,0.316,0.937,0.34c0.656,0.051,1.43-0.234,1.813-0.961c1.68-3.234,2.734-4.66,4.832-6.81
		c5.48,0.138,10.261-0.167,15.672-0.569c1.914-0.047,3.23-1.613,3.578-2.863c1.035-3.238,1.199-7.234,1.308-11.277
		c0.047-1.602-0.508-3.172-1.492-4.004c-0.937-0.758-2.066-1.031-3.105-1.312C69.59,10.656,66.707,10.305,64.184,10.285
		L64.184,10.285z M72.059,12.816c1.039,0.282,1.957,0.555,2.53,1.024c0.966,1.023,0.934,1.707,0.923,2.812
		c-0.11,3.918-0.297,7.723-1.184,10.606c-0.383,1.074-1.043,1.84-2.3,1.953c-5.516,0.41-10.301,0.727-15.844,0.566
		c-0.217-0.007-0.428,0.076-0.582,0.229c-2.329,2.353-3.52,3.99-5.297,7.407c-0.04,0.078-0.13,0.125-0.242,0.133
		c-0.07-0.004-0.102-0.063-0.106-0.113l0.238-7.22c0.002-0.403-0.295-0.745-0.695-0.8c-1.294-0.125-2.585-0.283-3.871-0.477
		c-0.555-0.082-0.758-0.234-0.91-0.461c-0.266-0.633-0.262-1.023-0.281-1.629c-0.126-3.657-0.184-6.848,0.374-10.023
		c0.055-0.472,0.231-0.953,0.418-1.351c0.31-0.485,0.782-0.555,1.258-0.688c6.086-1.68,12.04-2.937,17.649-2.941
		C66.887,11.941,69.77,12.219,72.059,12.816z M51.035,19.008c-0.84,1.004-0.758,2.367-0.11,3.281c0.34,0.48,0.868,0.863,1.509,0.95
		c0.836,0.07,1.367-0.271,1.937-0.657c1.035-0.898,1.14-2.469,0.352-3.605c-0.387-0.563-1.014-0.913-1.696-0.946
		C52.129,18.039,51.52,18.438,51.035,19.008z M60.105,18.188c-0.835,0.027-1.511,0.605-1.925,1.23
		c-0.47,0.71-0.746,1.605-0.364,2.484c0.735,1.684,3.274,1.664,4.286-0.05c0.464-0.79,0.347-1.688,0-2.336
		c-0.348-0.653-0.872-1.184-1.633-1.305C60.349,18.192,60.227,18.184,60.105,18.188z M67.469,18.344
		c-0.262-0.006-0.523,0.022-0.778,0.086c-1.004,0.27-1.859,1.304-1.73,2.629c0.066,0.668,0.371,1.32,0.926,1.765
		c0.554,0.45,1.355,0.649,2.203,0.477c0.972-0.2,1.578-0.985,1.777-1.742c0.203-0.758,0.153-1.528-0.316-2.153
		C69.059,18.749,68.29,18.357,67.469,18.344z M52.96,19.586c0.184,0.004,0.332,0.062,0.484,0.281
		c0.34,0.492,0.246,1.235-0.097,1.535c-0.34,0.297-0.555,0.325-0.707,0.305c-0.149-0.023-0.301-0.125-0.438-0.316
		c-0.258-0.368-0.336-0.961,0.008-1.387C52.39,19.762,52.726,19.609,52.96,19.586z M60.214,19.758
		c0.027,0.004,0.355,0.195,0.512,0.488c0.156,0.293,0.183,0.563,0.035,0.813c-0.442,0.75-1.38,0.546-1.52,0.222
		c-0.055-0.125-0.015-0.625,0.242-1.011C59.741,19.879,60.061,19.734,60.214,19.758L60.214,19.758z M68.296,20.328
		c0.047,0.067,0.164,0.492,0.074,0.828c-0.09,0.34-0.238,0.547-0.598,0.621c-0.46,0.098-0.718,0-0.914-0.156
		c-0.191-0.156-0.324-0.422-0.351-0.707c-0.07-0.703,0.183-0.867,0.586-0.973C67.558,19.824,68.085,20.027,68.296,20.328z
		 M86.867,13.434c0.011-0.198,0.088-0.387,0.219-0.536c0.132-0.158,0.33-0.246,0.535-0.238h5.223c0.176,0,0.36,0.074,0.547,0.219
		c0.177,0.129,0.282,0.336,0.28,0.555v8.336h8.74v-8.336c-0.003-0.424,0.338-0.771,0.762-0.773c0.01,0,0.021,0,0.031,0h5.151
		c0.235,0,0.438,0.058,0.614,0.175c0.176,0.117,0.265,0.305,0.265,0.562V38c0,0.258-0.078,0.45-0.23,0.578
		c-0.152,0.129-0.352,0.195-0.598,0.195h-5.203c-0.209,0.008-0.414-0.062-0.574-0.195c-0.145-0.129-0.219-0.32-0.219-0.578v-9.988
		h-8.738V38c0,0.246-0.078,0.438-0.238,0.57c-0.157,0.137-0.371,0.203-0.641,0.203h-5.172c-0.492,0-0.742-0.23-0.754-0.688V13.434z
		 M134.977,38.473c-0.139,0.121-0.305,0.206-0.484,0.246c-0.159,0.035-0.321,0.053-0.484,0.055h-2.656
		c-0.211,0-0.391-0.039-0.543-0.113c-0.149-0.074-0.281-0.18-0.387-0.309c-0.109-0.134-0.198-0.282-0.266-0.441
		c-0.071-0.165-0.13-0.335-0.176-0.508l-0.543-2.25c-0.175,0.363-0.433,0.773-0.765,1.238c-0.363,0.49-0.792,0.928-1.274,1.301
		c-0.561,0.43-1.184,0.773-1.847,1.02c-0.715,0.277-1.535,0.414-2.461,0.414c-1.336,0-2.55-0.258-3.64-0.773
		c-1.068-0.498-2.019-1.218-2.79-2.109c-0.765-0.891-1.36-1.934-1.781-3.12c-0.427-1.225-0.642-2.513-0.633-3.81V17.797
		c0-0.445,0.094-0.785,0.29-1.012c0.19-0.23,0.5-0.344,0.921-0.344h4.063c0.503,0,0.847,0.086,1.039,0.254
		c0.187,0.172,0.28,0.5,0.28,0.996v11.446c0,0.504,0.114,0.98,0.34,1.434c0.463,0.908,1.237,1.622,2.18,2.012
		c0.477,0.2,0.961,0.3,1.454,0.3c0.421,0,0.859-0.1,1.308-0.3c0.453-0.2,0.867-0.465,1.25-0.797c0.379-0.336,0.695-0.73,0.942-1.18
		c0.246-0.453,0.367-0.931,0.367-1.434v-11.43c0-0.199,0.039-0.398,0.113-0.597c0.066-0.184,0.186-0.343,0.344-0.457
		c0.152-0.094,0.297-0.16,0.43-0.196c0.136-0.035,0.292-0.05,0.468-0.05h3.973c0.504,0,0.867,0.12,1.09,0.367
		c0.223,0.246,0.336,0.578,0.336,0.988v19.676c0,0.223-0.051,0.426-0.152,0.613c-0.093,0.183-0.234,0.336-0.41,0.441L134.977,38.473
		z M155.391,36.047c-0.316,0.316-0.668,0.656-1.047,1.02c-0.383,0.363-0.801,0.703-1.258,1.02s-0.949,0.578-1.477,0.785
		c-0.545,0.206-1.125,0.31-1.707,0.305c-1.594,0-3.063-0.297-4.402-0.895c-1.31-0.574-2.488-1.409-3.465-2.453
		c-0.969-1.039-1.723-2.262-2.27-3.668c-0.543-1.406-0.816-2.918-0.816-4.535c0-1.629,0.273-3.145,0.816-4.547
		c0.547-1.398,1.301-2.617,2.271-3.656c0.975-1.044,2.153-1.876,3.464-2.445c1.34-0.59,2.809-0.887,4.402-0.887
		c0.602-0.007,1.199,0.088,1.77,0.281c0.514,0.178,1.004,0.419,1.457,0.719c0.441,0.297,0.844,0.625,1.215,0.996
		c0.367,0.367,0.719,0.73,1.047,1.082v-8.04c0-0.374,0.113-0.69,0.34-0.948c0.23-0.258,0.574-0.387,1.03-0.387h3.958
		c0.152,0,0.313,0.035,0.48,0.098c0.172,0.066,0.328,0.156,0.469,0.273s0.254,0.258,0.34,0.422c0.09,0.164,0.133,0.344,0.133,0.543
		v26.289c0,0.902-0.473,1.355-1.422,1.355h-3.449c-0.234,0-0.414-0.03-0.543-0.09c-0.127-0.057-0.239-0.143-0.324-0.254
		c-0.1-0.128-0.18-0.27-0.238-0.422c-0.07-0.168-0.16-0.367-0.266-0.59L155.391,36.047z M145.277,27.625
		c0,0.773,0.121,1.496,0.363,2.172c0.223,0.646,0.572,1.24,1.027,1.75c0.445,0.492,0.98,0.883,1.609,1.168
		c0.625,0.289,1.32,0.43,2.082,0.43c0.75,0,1.457-0.133,2.121-0.402c0.66-0.27,1.238-0.641,1.729-1.117
		c0.496-0.482,0.899-1.052,1.188-1.68c0.299-0.652,0.469-1.357,0.5-2.074v-0.246c0-0.75-0.141-1.465-0.422-2.145
		c-0.272-0.667-0.669-1.275-1.168-1.793c-0.501-0.518-1.098-0.933-1.758-1.222c-0.69-0.303-1.438-0.457-2.191-0.45
		c-0.762,0-1.457,0.15-2.082,0.45c-0.617,0.29-1.166,0.707-1.609,1.223c-0.453,0.527-0.801,1.135-1.027,1.792
		C145.396,26.169,145.273,26.895,145.277,27.625z M182.555,36.047c-0.316,0.316-0.664,0.656-1.047,1.02
		c-0.38,0.363-0.797,0.703-1.254,1.02s-0.949,0.578-1.48,0.785c-0.543,0.207-1.121,0.31-1.703,0.305
		c-1.594,0-3.063-0.297-4.406-0.895c-1.308-0.576-2.484-1.41-3.46-2.453c-0.97-1.039-1.728-2.262-2.271-3.668
		c-0.547-1.406-0.816-2.918-0.816-4.535c0-1.629,0.27-3.145,0.816-4.547c0.516-1.353,1.287-2.594,2.271-3.656
		c0.974-1.043,2.151-1.875,3.46-2.445c1.344-0.59,2.813-0.887,4.406-0.887c0.645,0,1.234,0.094,1.766,0.281
		c0.515,0.178,1.006,0.419,1.46,0.719c0.438,0.297,0.845,0.625,1.212,0.996c0.37,0.367,0.719,0.73,1.047,1.082v-8.04
		c0-0.374,0.117-0.69,0.344-0.948c0.229-0.258,0.57-0.387,1.027-0.387h3.957c0.152,0,0.313,0.035,0.484,0.098
		c0.168,0.066,0.324,0.156,0.465,0.273s0.258,0.258,0.344,0.422c0.09,0.164,0.133,0.344,0.133,0.543v26.289
		c0,0.902-0.477,1.355-1.426,1.355h-3.445c-0.234,0-0.418-0.03-0.547-0.09c-0.127-0.057-0.238-0.145-0.324-0.254
		c-0.099-0.129-0.179-0.271-0.238-0.422c-0.07-0.168-0.156-0.367-0.262-0.59L182.555,36.047z M172.445,27.625
		c0,0.773,0.121,1.496,0.359,2.172c0.226,0.646,0.576,1.24,1.03,1.75c0.446,0.492,0.981,0.883,1.606,1.168
		c0.629,0.289,1.324,0.43,2.086,0.43c0.725,0.006,1.445-0.131,2.117-0.402c0.646-0.257,1.234-0.637,1.734-1.117
		c0.496-0.482,0.898-1.052,1.188-1.68c0.299-0.652,0.469-1.357,0.5-2.074v-0.246c0-1.47-0.572-2.882-1.594-3.938
		c-0.5-0.519-1.098-0.935-1.758-1.222c-0.689-0.304-1.435-0.457-2.188-0.45c-0.762,0-1.457,0.15-2.086,0.45
		c-0.615,0.291-1.162,0.708-1.605,1.223c-0.452,0.528-0.802,1.136-1.031,1.792C172.564,26.17,172.442,26.895,172.445,27.625
		L172.445,27.625z M193.984,11.148c0-0.375,0.094-0.691,0.281-0.949c0.188-0.258,0.512-0.386,0.969-0.386h4.309
		c0.117,0,0.238,0.03,0.367,0.097c0.13,0.063,0.25,0.152,0.359,0.27c0.113,0.117,0.207,0.258,0.28,0.422
		c0.079,0.164,0.118,0.347,0.118,0.546v26.27c0,0.445-0.129,0.785-0.379,1.012c-0.254,0.23-0.578,0.344-0.977,0.344h-4.078
		c-0.457,0-0.78-0.113-0.969-0.344c-0.188-0.227-0.281-0.566-0.281-1.012V11.148z M223.594,36.102
		c-1.019,0.941-2.197,1.694-3.479,2.223c-1.29,0.535-2.657,0.801-4.099,0.801c-1.605,0-3.121-0.293-4.551-0.879
		c-1.399-0.564-2.678-1.392-3.766-2.438c-1.084-1.044-1.955-2.288-2.566-3.664c-0.633-1.406-0.949-2.938-0.949-4.59
		c0-1.031,0.125-2.031,0.379-3c0.25-0.965,0.609-1.871,1.07-2.715c0.465-0.843,1.031-1.626,1.688-2.332
		c1.332-1.423,3.025-2.458,4.898-2.996c0.961-0.282,1.977-0.422,3.043-0.422c0.973,0,1.914,0.129,2.832,0.387
		c1.804,0.505,3.449,1.461,4.781,2.777c0.66,0.646,1.238,1.37,1.723,2.156c0.48,0.777,0.852,1.61,1.117,2.496
		c0.262,0.883,0.395,1.797,0.395,2.734c0,0.609-0.008,1.105-0.027,1.492c-0.016,0.387-0.105,0.695-0.27,0.926
		c-0.164,0.227-0.438,0.387-0.82,0.473c-0.379,0.09-0.941,0.133-1.68,0.133h-12.66c0.117,0.75,0.355,1.379,0.715,1.883
		c0.355,0.504,0.77,0.906,1.238,1.203c0.47,0.3,0.97,0.512,1.496,0.641c0.488,0.124,0.989,0.189,1.492,0.195
		c0.422,0,0.855-0.043,1.301-0.133c0.439-0.084,0.871-0.201,1.293-0.352c0.395-0.136,0.778-0.306,1.145-0.508
		c0.344-0.195,0.625-0.398,0.836-0.609c0.188-0.152,0.348-0.266,0.48-0.34c0.131-0.077,0.281-0.117,0.434-0.117
		s0.309,0.055,0.465,0.16c0.16,0.105,0.336,0.258,0.535,0.457l1.863,2.109c0.13,0.152,0.211,0.289,0.246,0.414
		c0.035,0.121,0.055,0.25,0.055,0.379c0.004,0.218-0.064,0.431-0.195,0.605C223.921,35.82,223.77,35.973,223.594,36.102
		L223.594,36.102z M215.137,21.453c-0.457,0-0.898,0.09-1.328,0.274c-0.426,0.18-0.828,0.421-1.203,0.726
		c-0.376,0.307-0.715,0.656-1.012,1.04c-0.285,0.366-0.529,0.761-0.729,1.179h8.987c-0.236-0.44-0.504-0.863-0.801-1.266
		c-0.283-0.382-0.614-0.726-0.984-1.023c-0.381-0.297-0.809-0.528-1.266-0.684C216.324,21.535,215.77,21.453,215.137,21.453
		L215.137,21.453z"/>
</g>
</svg>
